<mxfile host="app.diagrams.net" agent="Mozilla/5.0 (Macintosh; Intel Mac OS X 10_15_7) AppleWebKit/537.36 (KHTML, like Gecko) Chrome/140.0.0.0 Safari/537.36" version="28.2.3">
  <diagram name="Page-1" id="UJQ6K34FvHcvYRbXDYUq">
    <mxGraphModel dx="1018" dy="693" grid="1" gridSize="10" guides="1" tooltips="1" connect="1" arrows="1" fold="1" page="1" pageScale="1" pageWidth="850" pageHeight="1100" math="0" shadow="0">
      <root>
        <mxCell id="0" />
        <mxCell id="1" parent="0" />
        <mxCell id="pTq57g4-NRrGkB-1elXy-1" value="users" style="sketch=0;outlineConnect=0;gradientColor=none;fontColor=#545B64;strokeColor=none;fillColor=#879196;dashed=0;verticalLabelPosition=bottom;verticalAlign=top;align=center;html=1;fontSize=12;fontStyle=0;aspect=fixed;shape=mxgraph.aws4.illustration_users;pointerEvents=1" vertex="1" parent="1">
          <mxGeometry x="30" y="30" width="100" height="100" as="geometry" />
        </mxCell>
        <mxCell id="pTq57g4-NRrGkB-1elXy-2" value="" style="sketch=0;points=[[0,0,0],[0.25,0,0],[0.5,0,0],[0.75,0,0],[1,0,0],[0,1,0],[0.25,1,0],[0.5,1,0],[0.75,1,0],[1,1,0],[0,0.25,0],[0,0.5,0],[0,0.75,0],[1,0.25,0],[1,0.5,0],[1,0.75,0]];outlineConnect=0;fontColor=#232F3E;fillColor=#8C4FFF;strokeColor=#ffffff;dashed=0;verticalLabelPosition=bottom;verticalAlign=top;align=center;html=1;fontSize=12;fontStyle=0;aspect=fixed;shape=mxgraph.aws4.resourceIcon;resIcon=mxgraph.aws4.cloudfront;" vertex="1" parent="1">
          <mxGeometry x="440" y="41.22" width="78" height="78" as="geometry" />
        </mxCell>
        <mxCell id="pTq57g4-NRrGkB-1elXy-3" value="" style="sketch=0;outlineConnect=0;fontColor=#232F3E;gradientColor=none;fillColor=#8C4FFF;strokeColor=none;dashed=0;verticalLabelPosition=bottom;verticalAlign=top;align=center;html=1;fontSize=12;fontStyle=0;aspect=fixed;pointerEvents=1;shape=mxgraph.aws4.route_53_resolver;" vertex="1" parent="1">
          <mxGeometry x="190" y="41.22" width="78" height="78" as="geometry" />
        </mxCell>
        <mxCell id="pTq57g4-NRrGkB-1elXy-4" value="" style="points=[];aspect=fixed;html=1;align=center;shadow=0;dashed=0;fillColor=#FF6A00;strokeColor=none;shape=mxgraph.alibaba_cloud.waf_web_application_firewall;" vertex="1" parent="1">
          <mxGeometry x="320.8" y="48.02000000000001" width="59.2" height="51.98" as="geometry" />
        </mxCell>
        <mxCell id="pTq57g4-NRrGkB-1elXy-5" value="" style="endArrow=classic;html=1;rounded=0;entryX=0.411;entryY=0.56;entryDx=0;entryDy=0;entryPerimeter=0;" edge="1" parent="1" source="pTq57g4-NRrGkB-1elXy-3" target="pTq57g4-NRrGkB-1elXy-4">
          <mxGeometry width="50" height="50" relative="1" as="geometry">
            <mxPoint x="268" y="81.22" as="sourcePoint" />
            <mxPoint x="318" y="31.22" as="targetPoint" />
          </mxGeometry>
        </mxCell>
        <mxCell id="pTq57g4-NRrGkB-1elXy-6" value="" style="endArrow=classic;html=1;rounded=0;exitX=0.713;exitY=0.639;exitDx=0;exitDy=0;exitPerimeter=0;" edge="1" parent="1" source="pTq57g4-NRrGkB-1elXy-4" target="pTq57g4-NRrGkB-1elXy-2">
          <mxGeometry width="50" height="50" relative="1" as="geometry">
            <mxPoint x="330" y="241.22" as="sourcePoint" />
            <mxPoint x="380" y="191.22" as="targetPoint" />
          </mxGeometry>
        </mxCell>
        <mxCell id="pTq57g4-NRrGkB-1elXy-7" value="WAF" style="text;strokeColor=none;align=center;fillColor=none;html=1;verticalAlign=middle;whiteSpace=wrap;rounded=0;" vertex="1" parent="1">
          <mxGeometry x="325" y="100" width="60" height="30" as="geometry" />
        </mxCell>
        <mxCell id="pTq57g4-NRrGkB-1elXy-8" value="Cloud Front" style="text;strokeColor=none;align=center;fillColor=none;html=1;verticalAlign=middle;whiteSpace=wrap;rounded=0;" vertex="1" parent="1">
          <mxGeometry x="451" y="119" width="60" height="30" as="geometry" />
        </mxCell>
        <mxCell id="pTq57g4-NRrGkB-1elXy-9" value="" style="endArrow=classic;html=1;rounded=0;" edge="1" parent="1" source="pTq57g4-NRrGkB-1elXy-1" target="pTq57g4-NRrGkB-1elXy-3">
          <mxGeometry width="50" height="50" relative="1" as="geometry">
            <mxPoint x="400" y="360" as="sourcePoint" />
            <mxPoint x="450" y="310" as="targetPoint" />
          </mxGeometry>
        </mxCell>
        <mxCell id="pTq57g4-NRrGkB-1elXy-10" value="" style="sketch=0;outlineConnect=0;fontColor=#232F3E;gradientColor=none;fillColor=#7AA116;strokeColor=none;dashed=0;verticalLabelPosition=bottom;verticalAlign=top;align=center;html=1;fontSize=12;fontStyle=0;aspect=fixed;pointerEvents=1;shape=mxgraph.aws4.bucket;" vertex="1" parent="1">
          <mxGeometry x="670" y="40.99999999999999" width="75" height="78" as="geometry" />
        </mxCell>
        <mxCell id="pTq57g4-NRrGkB-1elXy-11" value="" style="endArrow=classic;html=1;rounded=0;exitX=1;exitY=0.5;exitDx=0;exitDy=0;exitPerimeter=0;" edge="1" parent="1" source="pTq57g4-NRrGkB-1elXy-2" target="pTq57g4-NRrGkB-1elXy-10">
          <mxGeometry width="50" height="50" relative="1" as="geometry">
            <mxPoint x="400" y="360" as="sourcePoint" />
            <mxPoint x="450" y="310" as="targetPoint" />
          </mxGeometry>
        </mxCell>
        <mxCell id="pTq57g4-NRrGkB-1elXy-12" value="" style="sketch=0;points=[[0,0,0],[0.25,0,0],[0.5,0,0],[0.75,0,0],[1,0,0],[0,1,0],[0.25,1,0],[0.5,1,0],[0.75,1,0],[1,1,0],[0,0.25,0],[0,0.5,0],[0,0.75,0],[1,0.25,0],[1,0.5,0],[1,0.75,0]];outlineConnect=0;fontColor=#232F3E;fillColor=#8C4FFF;strokeColor=#ffffff;dashed=0;verticalLabelPosition=bottom;verticalAlign=top;align=center;html=1;fontSize=12;fontStyle=0;aspect=fixed;shape=mxgraph.aws4.resourceIcon;resIcon=mxgraph.aws4.api_gateway;" vertex="1" parent="1">
          <mxGeometry x="668.5" y="190" width="78" height="78" as="geometry" />
        </mxCell>
        <mxCell id="pTq57g4-NRrGkB-1elXy-13" value="" style="endArrow=classic;html=1;rounded=0;entryX=0.5;entryY=0;entryDx=0;entryDy=0;entryPerimeter=0;" edge="1" parent="1" source="pTq57g4-NRrGkB-1elXy-10" target="pTq57g4-NRrGkB-1elXy-12">
          <mxGeometry width="50" height="50" relative="1" as="geometry">
            <mxPoint x="400" y="360" as="sourcePoint" />
            <mxPoint x="450" y="310" as="targetPoint" />
          </mxGeometry>
        </mxCell>
        <mxCell id="pTq57g4-NRrGkB-1elXy-14" value="" style="outlineConnect=0;dashed=0;verticalLabelPosition=bottom;verticalAlign=top;align=center;html=1;shape=mxgraph.aws3.lambda_function;fillColor=#F58534;gradientColor=none;" vertex="1" parent="1">
          <mxGeometry x="356" y="193" width="69" height="72" as="geometry" />
        </mxCell>
        <mxCell id="pTq57g4-NRrGkB-1elXy-16" value="" style="outlineConnect=0;dashed=0;verticalLabelPosition=bottom;verticalAlign=top;align=center;html=1;shape=mxgraph.aws3.dynamo_db;fillColor=#2E73B8;gradientColor=none;" vertex="1" parent="1">
          <mxGeometry x="196.5" y="368.5" width="72" height="81" as="geometry" />
        </mxCell>
        <mxCell id="pTq57g4-NRrGkB-1elXy-17" value="" style="sketch=0;outlineConnect=0;fontColor=#232F3E;gradientColor=none;fillColor=#7AA116;strokeColor=none;dashed=0;verticalLabelPosition=bottom;verticalAlign=top;align=center;html=1;fontSize=12;fontStyle=0;aspect=fixed;pointerEvents=1;shape=mxgraph.aws4.bucket;" vertex="1" parent="1">
          <mxGeometry x="351.5" y="370" width="75" height="78" as="geometry" />
        </mxCell>
        <mxCell id="pTq57g4-NRrGkB-1elXy-18" value="" style="sketch=0;points=[[0,0,0],[0.25,0,0],[0.5,0,0],[0.75,0,0],[1,0,0],[0,1,0],[0.25,1,0],[0.5,1,0],[0.75,1,0],[1,1,0],[0,0.25,0],[0,0.5,0],[0,0.75,0],[1,0.25,0],[1,0.5,0],[1,0.75,0]];outlineConnect=0;fontColor=#232F3E;fillColor=#DD344C;strokeColor=#ffffff;dashed=0;verticalLabelPosition=bottom;verticalAlign=top;align=center;html=1;fontSize=12;fontStyle=0;aspect=fixed;shape=mxgraph.aws4.resourceIcon;resIcon=mxgraph.aws4.cognito;" vertex="1" parent="1">
          <mxGeometry x="511" y="187" width="78" height="78" as="geometry" />
        </mxCell>
        <mxCell id="pTq57g4-NRrGkB-1elXy-19" value="" style="sketch=0;points=[[0,0,0],[0.25,0,0],[0.5,0,0],[0.75,0,0],[1,0,0],[0,1,0],[0.25,1,0],[0.5,1,0],[0.75,1,0],[1,1,0],[0,0.25,0],[0,0.5,0],[0,0.75,0],[1,0.25,0],[1,0.5,0],[1,0.75,0]];outlineConnect=0;fontColor=#232F3E;fillColor=#E7157B;strokeColor=#ffffff;dashed=0;verticalLabelPosition=bottom;verticalAlign=top;align=center;html=1;fontSize=12;fontStyle=0;aspect=fixed;shape=mxgraph.aws4.resourceIcon;resIcon=mxgraph.aws4.eventbridge;" vertex="1" parent="1">
          <mxGeometry x="506.5" y="368.5" width="78" height="78" as="geometry" />
        </mxCell>
        <mxCell id="pTq57g4-NRrGkB-1elXy-20" value="" style="endArrow=none;html=1;rounded=0;" edge="1" parent="1">
          <mxGeometry width="50" height="50" relative="1" as="geometry">
            <mxPoint x="236.5" y="310" as="sourcePoint" />
            <mxPoint x="546.5" y="310" as="targetPoint" />
          </mxGeometry>
        </mxCell>
        <mxCell id="pTq57g4-NRrGkB-1elXy-21" value="" style="endArrow=classic;html=1;rounded=0;" edge="1" parent="1" target="pTq57g4-NRrGkB-1elXy-17">
          <mxGeometry width="50" height="50" relative="1" as="geometry">
            <mxPoint x="389.5" y="310" as="sourcePoint" />
            <mxPoint x="431.5" y="318.5" as="targetPoint" />
          </mxGeometry>
        </mxCell>
        <mxCell id="pTq57g4-NRrGkB-1elXy-22" value="" style="endArrow=classic;html=1;rounded=0;entryX=0.5;entryY=0;entryDx=0;entryDy=0;entryPerimeter=0;" edge="1" parent="1" target="pTq57g4-NRrGkB-1elXy-19">
          <mxGeometry width="50" height="50" relative="1" as="geometry">
            <mxPoint x="545.5" y="310" as="sourcePoint" />
            <mxPoint x="730.5" y="300" as="targetPoint" />
          </mxGeometry>
        </mxCell>
        <mxCell id="pTq57g4-NRrGkB-1elXy-24" value="" style="endArrow=classic;html=1;rounded=0;" edge="1" parent="1" target="pTq57g4-NRrGkB-1elXy-16">
          <mxGeometry width="50" height="50" relative="1" as="geometry">
            <mxPoint x="236.5" y="310" as="sourcePoint" />
            <mxPoint x="257.5" y="310" as="targetPoint" />
          </mxGeometry>
        </mxCell>
        <mxCell id="pTq57g4-NRrGkB-1elXy-25" value="" style="endArrow=classic;html=1;rounded=0;exitX=0.5;exitY=1;exitDx=0;exitDy=0;exitPerimeter=0;" edge="1" parent="1" source="pTq57g4-NRrGkB-1elXy-14">
          <mxGeometry width="50" height="50" relative="1" as="geometry">
            <mxPoint x="400" y="360" as="sourcePoint" />
            <mxPoint x="390" y="310" as="targetPoint" />
          </mxGeometry>
        </mxCell>
        <mxCell id="pTq57g4-NRrGkB-1elXy-26" value="API GATEWAY" style="text;strokeColor=none;align=center;fillColor=none;html=1;verticalAlign=middle;whiteSpace=wrap;rounded=0;" vertex="1" parent="1">
          <mxGeometry x="750" y="214" width="60" height="30" as="geometry" />
        </mxCell>
        <mxCell id="pTq57g4-NRrGkB-1elXy-27" value="4 LAMBDA" style="text;strokeColor=none;align=center;fillColor=none;html=1;verticalAlign=middle;whiteSpace=wrap;rounded=0;" vertex="1" parent="1">
          <mxGeometry x="290" y="214" width="60" height="30" as="geometry" />
        </mxCell>
        <mxCell id="pTq57g4-NRrGkB-1elXy-28" value="Dynamo DB" style="text;strokeColor=none;align=center;fillColor=none;html=1;verticalAlign=middle;whiteSpace=wrap;rounded=0;" vertex="1" parent="1">
          <mxGeometry x="202.5" y="460" width="60" height="30" as="geometry" />
        </mxCell>
        <mxCell id="pTq57g4-NRrGkB-1elXy-29" value="S3" style="text;strokeColor=none;align=center;fillColor=none;html=1;verticalAlign=middle;whiteSpace=wrap;rounded=0;" vertex="1" parent="1">
          <mxGeometry x="359" y="460" width="60" height="30" as="geometry" />
        </mxCell>
        <mxCell id="pTq57g4-NRrGkB-1elXy-30" value="Cognito" style="text;strokeColor=none;align=center;fillColor=none;html=1;verticalAlign=middle;whiteSpace=wrap;rounded=0;" vertex="1" parent="1">
          <mxGeometry x="520" y="265" width="60" height="30" as="geometry" />
        </mxCell>
        <mxCell id="pTq57g4-NRrGkB-1elXy-31" value="Event bridge" style="text;strokeColor=none;align=center;fillColor=none;html=1;verticalAlign=middle;whiteSpace=wrap;rounded=0;" vertex="1" parent="1">
          <mxGeometry x="515.5" y="460" width="60" height="30" as="geometry" />
        </mxCell>
        <mxCell id="pTq57g4-NRrGkB-1elXy-32" value="S3 static web host" style="text;strokeColor=none;align=center;fillColor=none;html=1;verticalAlign=middle;whiteSpace=wrap;rounded=0;" vertex="1" parent="1">
          <mxGeometry x="750" y="59.00999999999999" width="60" height="30" as="geometry" />
        </mxCell>
        <mxCell id="pTq57g4-NRrGkB-1elXy-33" value="Route 53" style="text;strokeColor=none;align=center;fillColor=none;html=1;verticalAlign=middle;whiteSpace=wrap;rounded=0;" vertex="1" parent="1">
          <mxGeometry x="199" y="130" width="60" height="30" as="geometry" />
        </mxCell>
        <mxCell id="pTq57g4-NRrGkB-1elXy-37" value="" style="endArrow=classic;html=1;rounded=0;entryX=1;entryY=0.5;entryDx=0;entryDy=0;entryPerimeter=0;" edge="1" parent="1" source="pTq57g4-NRrGkB-1elXy-12" target="pTq57g4-NRrGkB-1elXy-18">
          <mxGeometry width="50" height="50" relative="1" as="geometry">
            <mxPoint x="400" y="360" as="sourcePoint" />
            <mxPoint x="450" y="310" as="targetPoint" />
          </mxGeometry>
        </mxCell>
        <mxCell id="pTq57g4-NRrGkB-1elXy-38" value="" style="endArrow=classic;html=1;rounded=0;exitX=0;exitY=0.5;exitDx=0;exitDy=0;exitPerimeter=0;entryX=1;entryY=0.5;entryDx=0;entryDy=0;entryPerimeter=0;" edge="1" parent="1" source="pTq57g4-NRrGkB-1elXy-18" target="pTq57g4-NRrGkB-1elXy-14">
          <mxGeometry width="50" height="50" relative="1" as="geometry">
            <mxPoint x="400" y="360" as="sourcePoint" />
            <mxPoint x="450" y="310" as="targetPoint" />
          </mxGeometry>
        </mxCell>
      </root>
    </mxGraphModel>
  </diagram>
</mxfile>
